<?xml version="1.0" encoding="UTF-8"?>
<svg width="752pt" height="752pt" version="1.1" viewBox="0 0 752 752" xmlns="http://www.w3.org/2000/svg">
 <path d="m540.19 337.73h-0.003906l-33.016-2.3516c-2.4961-8.0703-5.7422-15.887-9.6992-23.375l21.691-25.031c8.5391-9.8555 8.0039-24.801-1.2227-34.02l-18.887-18.887c-9.2305-9.2227-24.168-9.7539-34.023-1.2227l-25.027 21.691c-7.4922-3.957-15.309-7.2031-23.375-9.6992l-2.3516-33.02c-0.92969-13.004-11.883-23.199-24.926-23.199h-26.703c-13.039 0-23.988 10.191-24.926 23.207l-2.3516 33.016c-8.0703 2.5-15.891 5.7461-23.375 9.6992l-25.031-21.691c-9.8555-8.5312-24.793-8.0039-34.02 1.2227l-18.887 18.887c-9.2227 9.2188-9.7617 24.164-1.2227 34.023l21.691 25.027c-3.957 7.4922-7.2031 15.301-9.6992 23.375l-33.02 2.3516c-13.004 0.92969-23.199 11.883-23.199 24.926v26.703c0 13.039 10.191 23.988 23.207 24.926l33.016 2.3516c2.4961 8.0703 5.7422 15.887 9.6992 23.375l-21.691 25.031c-8.5391 9.8555-8.0039 24.801 1.2227 34.02l18.887 18.887c9.2188 9.2227 24.168 9.7461 34.023 1.2227l25.027-21.691c7.4844 3.9531 15.309 7.1992 23.375 9.6992l2.3516 33.02c0.92969 13.004 11.883 23.199 24.926 23.199h26.703c13.039 0 23.988-10.191 24.926-23.207l2.3516-33.016c8.0703-2.4961 15.887-5.7422 23.375-9.6992l25.031 21.691c9.8516 8.5312 24.801 8.0078 34.02-1.2227l18.887-18.887c9.2227-9.2188 9.7617-24.164 1.2227-34.023l-21.691-25.027c3.957-7.4922 7.2031-15.309 9.6992-23.375l33.02-2.3516c13.004-0.92969 23.199-11.883 23.199-24.926v-26.703c-0.003906-13.047-10.199-23.996-23.203-24.926zm-164.19 125.72c-48.223 0-87.449-39.227-87.449-87.449 0-48.219 39.23-87.449 87.449-87.449 48.223 0 87.449 39.227 87.449 87.449s-39.227 87.449-87.449 87.449z"/>
</svg>
