<svg width="752pt" height="752pt" version="1.1" viewBox="0 0 752 752" xmlns="http://www.w3.org/2000/svg">
 <defs>
  <clipPath id="d">
   <path d="m357 139.21h38v109.79h-38z"/>
  </clipPath>
  <clipPath id="c">
   <path d="m357 503h38v109.79h-38z"/>
  </clipPath>
  <clipPath id="b">
   <path d="m139.21 357h109.79v38h-109.79z"/>
  </clipPath>
  <clipPath id="a">
   <path d="m503 357h109.79v38h-109.79z"/>
  </clipPath>
 </defs>
 <g clip-path="url(#d)">
  <path d="m357.85 139.22h36.301v109.72h-36.301z"/>
 </g>
 <g clip-path="url(#c)">
  <path d="m357.85 503.07h36.301v109.72h-36.301z"/>
 </g>
 <path d="m241.89 180.03 54.855 95.008 31.449-18.152-54.859-95.008z"/>
 <path d="m423.81 495.12 54.859 95.035 31.445-18.152-54.855-95.008z"/>
 <path d="m275.03 296.75-95.023-54.859-18.148 31.449 95.02 54.859z"/>
 <path d="m476.96 455.26 95.023 54.859 18.152-31.449-95.023-54.855z"/>
 <g clip-path="url(#b)">
  <path d="m139.22 357.85h109.7v36.305h-109.7z"/>
 </g>
 <g clip-path="url(#a)">
  <path d="m503.06 357.85h109.72v36.305h-109.72z"/>
 </g>
 <path d="m256.88 423.81-95.02 54.855 18.148 31.449 95.023-54.859z"/>
 <path d="m495.11 328.2 95.023-54.859-18.152-31.449-95.023 54.859z"/>
 <path d="m241.89 572 31.445 18.152 54.859-95.008-31.449-18.152z"/>
 <path d="m510.11 180.03-31.445-18.152-54.859 95.008 31.449 18.152z"/>
</svg>
